<?xml version="1.0" encoding="utf-8"?>
<!-- Generator: Adobe Illustrator 21.1.0, SVG Export Plug-In . SVG Version: 6.00 Build 0)  -->
<svg version="1.1" id="Layer_1" xmlns="http://www.w3.org/2000/svg" xmlns:xlink="http://www.w3.org/1999/xlink" x="0px" y="0px"
	 viewBox="0 0 98.5 98.5" style="enable-background:new 0 0 98.5 98.5;" xml:space="preserve">
<style type="text/css">
	.st0{fill:#CECECE;}
</style>
<path class="st0" d="M97,89.7L73.2,65.9c12.4-16,11.3-39.2-3.4-53.9c-7.7-7.7-18-12-28.9-12C30,0,19.7,4.3,12,12
	C4.3,19.7,0,30,0,40.9s4.3,21.2,12,28.9c7.7,7.7,18,12,28.9,12c9.2,0,17.9-3,25-8.6L89.7,97c1,1,2.3,1.5,3.6,1.5
	c1.3,0,2.6-0.5,3.6-1.5C99,95,99,91.7,97,89.7z M19.2,62.5c-5.8-5.8-9-13.5-9-21.6c0-8.2,3.2-15.9,9-21.6c5.8-5.8,13.5-9,21.6-9
	c8.2,0,15.9,3.2,21.6,9c11.9,11.9,11.9,31.3,0,43.3c-5.8,5.8-13.5,9-21.6,9C32.7,71.5,25,68.3,19.2,62.5z"/>
</svg>
